:FULLY-SPECIFIED
:FORCE-ALL-JOINTS-BE-3DOF
:DEGREES
2548
root 4.05349 13.7339 -23.8981 -71.8046 87.5033 -74.18
lfemur -37.9185 12.2533 -11.9134
ltibia 89.8292 -0 0
lfoot -27.9351 25.7024 -0.00667779
ltoes -39.0773 0 0
rfemur -56.8987 -24.8826 9.65403
rtibia 63.4092 -0 0
rfoot 1.22695 7.69225 0.152622
rtoes 8.20112 -0 0
lowerback 16.7032 -0.418612 -3.54855
upperback -1.10272 -0.900301 3.12046
thorax -10.5263 -0.101388 5.6775
lowerneck 5.12238 -14.6107 -15.1586
upperneck 0.183126 -20.4549 14.7682
head 2.32195 -10.3723 6.14841
lclavicle 5.1684e-15 3.18055e-15 0
lhumerus -53.1787 -45.0865 115.114
lradius 107.509 -0 0
lwrist 81.8758 0 0
lhand 8.98471 40.2607 -0.0137971
lfingers 7.12502 -0 0
lthumb 34.1619 66.9991 -0.0159429
rclavicle 5.1684e-15 3.18055e-15 0
rhumerus 8.50518 -14.5856 -60.9931
rradius 76.335 -0 0
rwrist 28.267 0 0
rhand -38.3745 -48.7011 0.0975806
rfingers 7.12502 -0 0
rthumb -11.3995 -78.3398 0.092534
2549
root 4.01128 13.7477 -24.0363 -46.2245 86.7811 -48.7219
lfemur -38.0407 12.367 -12.1054
ltibia 89.7114 -0 0
lfoot -27.9945 25.797 -0.00927863
ltoes -38.9845 0 0
rfemur -56.9607 -24.7498 9.91573
rtibia 64.0266 -0 0
rfoot 0.99216 7.15786 0.212159
rtoes 8.21835 -0 0
lowerback 16.7492 -0.384347 -3.60285
upperback -1.09293 -0.869649 3.10051
thorax -10.5459 -0.0842387 5.67905
lowerneck 5.11864 -14.6138 -15.1633
upperneck 0.184607 -20.4641 14.8498
head 2.33428 -10.3775 6.1713
lclavicle 5.1684e-15 3.18055e-15 0
lhumerus -52.6916 -45.4609 115.094
lradius 107.281 -0 0
lwrist 81.6793 0 0
lhand 8.86901 40.3609 -0.019171
lfingers 7.12502 -0 0
lthumb 34.0516 67.1206 -0.0221527
rclavicle 5.1684e-15 3.18055e-15 0
rhumerus 9.22865 -13.5458 -60.7596
rradius 76.6514 -0 0
rwrist 27.9501 0 0
rhand -38.0585 -48.4442 0.135614
rfingers 7.12502 -0 0
rthumb -11.0943 -78.0873 0.128599
2550
root 3.96908 13.7614 -24.1744 -30.2204 85.499 -32.858
lfemur -38.1816 12.4972 -12.3264
ltibia 89.5761 -0 0
lfoot -28.0627 25.9056 -0.012145
ltoes -38.8778 0 0
rfemur -57.0309 -24.5969 10.2158
rtibia 64.7358 -0 0
rfoot 0.721804 6.54378 0.277838
rtoes 8.23814 -0 0
lowerback 16.8021 -0.344937 -3.66518
upperback -1.08169 -0.834439 3.0776
thorax -10.5685 -0.0645401 5.68081
lowerneck 5.11435 -14.6173 -15.1687
upperneck 0.186291 -20.4747 14.9436
head 2.34843 -10.3835 6.19758
lclavicle 5.1684e-15 3.18055e-15 0
lhumerus -52.128 -45.8908 115.064
lradius 107.02 -0 0
lwrist 81.4536 0 0
lhand 8.7361 40.476 -0.0250938
lfingers 7.12502 -0 0
lthumb 33.925 67.2602 -0.0289968
rclavicle 5.1684e-15 3.18055e-15 0
rhumerus 10.0613 -12.3551 -60.476
rradius 77.0148 -0 0
rwrist 27.5861 0 0
rhand -37.6952 -48.1489 0.177549
rfingers 7.12502 -0 0
rthumb -10.7436 -77.7971 0.168363
2551
root 3.92687 13.7752 -24.3126 -20.8829 83.844 -23.6778
lfemur -38.3401 12.6424 -12.5746
ltibia 89.4245 -0 0
lfoot -28.1391 26.0273 -0.015203
ltoes -38.7582 0 0
rfemur -57.1084 -24.4252 10.5513
rtibia 65.5303 -0 0
rfoot 0.418067 5.85537 0.347979
rtoes 8.26031 -0 0
lowerback 16.8613 -0.300711 -3.73498
upperback -1.06912 -0.794982 3.05194
thorax -10.5939 -0.0424681 5.68278
lowerneck 5.10955 -14.6212 -15.1747
upperneck 0.188155 -20.4866 15.0486
head 2.36429 -10.3903 6.22702
lclavicle 5.1684e-15 3.18055e-15 0
lhumerus -51.4908 -46.3723 115.023
lradius 106.728 -0 0
lwrist 81.2007 0 0
lhand 8.58717 40.6049 -0.0314127
lfingers 7.12502 -0 0
lthumb 33.7831 67.4166 -0.0362988
rclavicle 5.1684e-15 3.18055e-15 0
rhumerus 10.997 -11.0259 -60.1388
rradius 77.4219 -0 0
rwrist 27.1783 0 0
rhand -37.288 -47.8177 0.22231
rfingers 7.12502 -0 0
rthumb -10.3504 -77.4717 0.210804
2552
root 3.88466 13.7889 -24.4508 -15.1371 81.9207 -18.1052
lfemur -38.5152 12.8013 -12.8481
ltibia 89.2579 -0 0
lfoot -28.2232 26.1611 -0.018378
ltoes -38.6268 0 0
rfemur -57.1923 -24.236 10.9194
rtibia 66.404 -0 0
rfoot 0.083149 5.09801 0.420882
rtoes 8.28469 -0 0
lowerback 16.9263 -0.252001 -3.81166
upperback -1.05532 -0.751592 3.02373
thorax -10.6217 -0.0181982 5.68493
lowerneck 5.10426 -14.6255 -15.1813
upperneck 0.190179 -20.4996 15.1641
head 2.38173 -10.3977 6.2594
lclavicle 5.1684e-15 3.18055e-15 0
lhumerus -50.783 -46.9012 114.968
lradius 106.406 -0 0
lwrist 80.9226 0 0
lhand 8.4234 40.7468 -0.0379736
lfingers 7.12502 -0 0
lthumb 33.6271 67.5886 -0.0438805
rclavicle 5.1684e-15 3.18055e-15 0
rhumerus 12.0306 -9.57086 -59.7444
rradius 77.8696 -0 0
rwrist 26.7299 0 0
rhand -36.8399 -47.4531 0.268805
rfingers 7.12502 -0 0
rthumb -9.91777 -77.1135 0.254889
2553
root 3.84246 13.8027 -24.589 -11.3494 79.7836 -14.5056
lfemur -38.706 12.9725 -13.1451
ltibia 89.0773 -0 0
lfoot -28.3142 26.3061 -0.0215959
ltoes -38.4845 0 0
rfemur -57.2815 -24.0304 11.3172
rtibia 67.3504 -0 0
rfoot -0.280718 4.27711 0.494853
rtoes 8.31109 -0 0
lowerback 16.9967 -0.199135 -3.89468
upperback -1.0404 -0.70458 2.99319
thorax -10.6519 0.00809416 5.68725
lowerneck 5.09854 -14.6301 -15.1885
upperneck 0.19234 -20.5138 15.2893
head 2.40061 -10.4058 6.29446
lclavicle 5.1684e-15 3.18055e-15 0
lhumerus -50.0074 -47.4736 114.898
lradius 106.058 -0 0
lwrist 80.6214 0 0
lhand 8.24598 40.9004 -0.0446234
lfingers 7.12502 -0 0
lthumb 33.4581 67.7749 -0.051565
rclavicle 5.1684e-15 3.18055e-15 0
rhumerus 13.157 -8.00286 -59.2889
rradius 78.3545 -0 0
rwrist 26.2441 0 0
rhand -36.3542 -47.0578 0.315954
rfingers 7.12502 -0 0
rthumb -9.44882 -76.7252 0.299592
2554
root 3.80025 13.8165 -24.7272 -8.69826 77.4663 -12.0565
lfemur -38.9113 13.1546 -13.4638
ltibia 88.8841 -0 0
lfoot -28.4117 26.4612 -0.0247845
ltoes -38.3321 0 0
rfemur -57.3751 -23.8098 11.7418
rtibia 68.3633 -0 0
rfoot -0.671263 3.39807 0.56823
rtoes 8.33936 -0 0
lowerback 17.0719 -0.142446 -3.98344
upperback -1.02445 -0.654259 2.96052
thorax -10.6841 0.0362335 5.68971
lowerneck 5.09242 -14.6351 -15.1962
upperneck 0.194616 -20.5289 15.4232
head 2.42081 -10.4144 6.33199
lclavicle 5.1684e-15 3.18055e-15 0
lhumerus -49.1668 -48.0854 114.809
lradius 105.685 -0 0
lwrist 80.299 0 0
lhand 8.05608 41.0649 -0.0512129
lfingers 7.12502 -0 0
lthumb 33.2771 67.9743 -0.0591798
rclavicle 5.1684e-15 3.18055e-15 0
rhumerus 14.3721 -6.33499 -58.769
rradius 78.8735 -0 0
rwrist 25.7243 0 0
rhand -35.8341 -46.6344 0.362697
rfingers 7.12502 -0 0
rthumb -8.94663 -76.3092 0.343909
2555
root 3.75804 13.8302 -24.8654 -6.74914 74.9932 -10.3224
lfemur -39.1301 13.3464 -13.8025
ltibia 88.6794 -0 0
lfoot -28.5149 26.6256 -0.0278744
ltoes -38.1707 0 0
rfemur -57.4721 -23.5755 12.1904
rtibia 69.4362 -0 0
rfoot -1.08617 2.46633 0.639416
rtoes 8.3693 -0 0
lowerback 17.1515 -0.0822652 -4.0774
upperback -1.00759 -0.600943 2.92592
thorax -10.7183 0.0660442 5.69231
lowerneck 5.08593 -14.6404 -15.2043
upperneck 0.196986 -20.5449 15.5652
head 2.44221 -10.4235 6.37175
lclavicle 5.1684e-15 3.18055e-15 0
lhumerus -48.2635 -48.7325 114.698
lradius 105.29 -0 0
lwrist 79.9575 0 0
lhand 7.85489 41.2391 -0.0575987
lfingers 7.12502 -0 0
lthumb 33.0854 68.1857 -0.0665595
rclavicle 5.1684e-15 3.18055e-15 0
rhumerus 15.6722 -4.58056 -58.1813
rradius 79.4233 -0 0
rwrist 25.1736 0 0
rhand -35.2827 -46.1853 0.408017
rfingers 7.12502 -0 0
rthumb -8.41429 -75.8681 0.386876
2556
root 3.71584 13.844 -25.0036 -5.257 72.3844 -9.05743
lfemur -39.3612 13.5464 -14.1592
ltibia 88.4645 -0 0
lfoot -28.6234 26.7982 -0.0308004
ltoes -38.0012 0 0
rfemur -57.5716 -23.3286 12.6602
rtibia 70.563 -0 0
rfoot -1.52305 1.48734 0.706894
rtoes 8.40073 -0 0
lowerback 17.235 -0.0189279 -4.17597
upperback -0.989917 -0.544942 2.88961
thorax -10.7542 0.0973508 5.69501
lowerneck 5.07912 -14.646 -15.2129
upperneck 0.19943 -20.5618 15.7142
head 2.46467 -10.4332 6.41349
lclavicle 5.1684e-15 3.18055e-15 0
lhumerus -47.3002 -49.4107 114.564
lradius 104.875 -0 0
lwrist 79.5988 0 0
lhand 7.6436 41.4221 -0.0636459
lfingers 7.12502 -0 0
lthumb 32.8841 68.4076 -0.0735478
rclavicle 5.1684e-15 3.18055e-15 0
rhumerus 17.054 -2.75308 -57.5226
rradius 80.0006 -0 0
rwrist 24.5953 0 0
rhand -34.7033 -45.7133 0.450953
rfingers 7.12502 -0 0
rthumb -7.85493 -75.4044 0.427581
2557
root 3.67363 13.8578 -25.1418 -4.07546 69.658 -8.1143
lfemur -39.6037 13.7533 -14.5322
ltibia 88.2405 -0 0
lfoot -28.7364 26.9781 -0.033502
ltoes -37.8245 0 0
rfemur -57.6728 -23.0705 13.1483
rtibia 71.7372 -0 0
rfoot -1.97951 0.4666 0.76926
rtoes 8.4335 -0 0
lowerback 17.3219 0.0472294 -4.2786
upperback -0.971539 -0.486572 2.85179
thorax -10.7916 0.129978 5.69781
lowerneck 5.07202 -14.6517 -15.2218
upperneck 0.201927 -20.5794 15.8695
head 2.48807 -10.4432 6.45699
lclavicle 5.1684e-15 3.18055e-15 0
lhumerus -46.2793 -50.1157 114.402
lradius 104.443 -0 0
lwrist 79.2251 0 0
lhand 7.42339 41.6129 -0.0692296
lfingers 7.12502 -0 0
lthumb 32.6742 68.6389 -0.0800006
rclavicle 5.1684e-15 3.18055e-15 0
rhumerus 18.5148 -0.866214 -56.7901
rradius 80.6023 -0 0
rwrist 23.9926 0 0
rhand -34.0991 -45.221 0.490615
rfingers 7.12502 -0 0
rthumb -7.27168 -74.9209 0.465182
2558
root 3.63142 13.8715 -25.28 -3.11264 66.8306 -7.40039
lfemur -39.8564 13.9658 -14.9195
ltibia 88.0086 -0 0
lfoot -28.8533 27.1643 -0.0359246
ltoes -37.6417 0 0
rfemur -57.7748 -22.8026 13.6521
rtibia 72.9525 -0 0
rfoot -2.45305 -0.5904 0.825234
rtoes 8.46741 -0 0
lowerback 17.4116 0.115867 -4.38471
upperback -0.952558 -0.426144 2.81266
thorax -10.8303 0.163749 5.70068
lowerneck 5.06467 -14.6577 -15.231
upperneck 0.204458 -20.5975 16.0303
head 2.51229 -10.4537 6.50201
lclavicle 5.1684e-15 3.18055e-15 0
lhumerus -45.2031 -50.8434 114.212
lradius 103.995 -0 0
lwrist 78.8383 0 0
lhand 7.19545 41.8103 -0.0742367
lfingers 7.12502 -0 0
lthumb 32.457 68.8783 -0.0857871
rclavicle 5.1684e-15 3.18055e-15 0
rhumerus 20.0521 1.06625 -55.9816
rradius 81.225 -0 0
rwrist 23.3688 0 0
rhand -33.4735 -44.711 0.526195
rfingers 7.12502 -0 0
rthumb -6.66769 -74.42 0.498912
